<mxfile host="app.diagrams.net" agent="Mozilla/5.0 (Macintosh; Intel Mac OS X 10_15_7) AppleWebKit/537.36 (KHTML, like Gecko) Chrome/134.0.0.0 Safari/537.36" version="26.1.0">
  <diagram name="ページ1" id="x4tUrKIkAgpwRHbUYw8x">
    <mxGraphModel dx="1185" dy="724" grid="1" gridSize="10" guides="1" tooltips="1" connect="1" arrows="1" fold="1" page="1" pageScale="1" pageWidth="827" pageHeight="1169" math="0" shadow="0">
      <root>
        <mxCell id="0" />
        <mxCell id="1" parent="0" />
        <mxCell id="hK8XEi0GKn9pTeTBIuvp-13" value="R1" style="ellipse;whiteSpace=wrap;html=1;" vertex="1" parent="1">
          <mxGeometry x="180" y="420" width="90" height="50" as="geometry" />
        </mxCell>
        <mxCell id="hK8XEi0GKn9pTeTBIuvp-14" value="R3" style="ellipse;whiteSpace=wrap;html=1;" vertex="1" parent="1">
          <mxGeometry x="70" y="300" width="90" height="50" as="geometry" />
        </mxCell>
        <mxCell id="hK8XEi0GKn9pTeTBIuvp-15" value="R4" style="ellipse;whiteSpace=wrap;html=1;" vertex="1" parent="1">
          <mxGeometry x="300" y="300" width="90" height="50" as="geometry" />
        </mxCell>
        <mxCell id="hK8XEi0GKn9pTeTBIuvp-16" value="R2" style="ellipse;whiteSpace=wrap;html=1;" vertex="1" parent="1">
          <mxGeometry x="400" y="420" width="90" height="50" as="geometry" />
        </mxCell>
        <mxCell id="hK8XEi0GKn9pTeTBIuvp-18" value="" style="endArrow=none;html=1;rounded=0;entryX=1.014;entryY=0.558;entryDx=0;entryDy=0;entryPerimeter=0;exitX=0.007;exitY=0.582;exitDx=0;exitDy=0;exitPerimeter=0;" edge="1" parent="1" source="hK8XEi0GKn9pTeTBIuvp-16" target="hK8XEi0GKn9pTeTBIuvp-13">
          <mxGeometry width="50" height="50" relative="1" as="geometry">
            <mxPoint x="320" y="520" as="sourcePoint" />
            <mxPoint x="370" y="470" as="targetPoint" />
          </mxGeometry>
        </mxCell>
        <mxCell id="hK8XEi0GKn9pTeTBIuvp-19" value="" style="endArrow=none;html=1;rounded=0;entryX=0.721;entryY=0.982;entryDx=0;entryDy=0;entryPerimeter=0;exitX=0;exitY=0;exitDx=0;exitDy=0;" edge="1" parent="1" source="hK8XEi0GKn9pTeTBIuvp-13" target="hK8XEi0GKn9pTeTBIuvp-14">
          <mxGeometry width="50" height="50" relative="1" as="geometry">
            <mxPoint x="320" y="520" as="sourcePoint" />
            <mxPoint x="370" y="470" as="targetPoint" />
          </mxGeometry>
        </mxCell>
        <mxCell id="hK8XEi0GKn9pTeTBIuvp-20" value="" style="endArrow=none;html=1;rounded=0;entryX=0.819;entryY=0.084;entryDx=0;entryDy=0;entryPerimeter=0;exitX=0;exitY=1;exitDx=0;exitDy=0;" edge="1" parent="1" source="hK8XEi0GKn9pTeTBIuvp-15" target="hK8XEi0GKn9pTeTBIuvp-13">
          <mxGeometry width="50" height="50" relative="1" as="geometry">
            <mxPoint x="320" y="520" as="sourcePoint" />
            <mxPoint x="370" y="470" as="targetPoint" />
          </mxGeometry>
        </mxCell>
        <mxCell id="hK8XEi0GKn9pTeTBIuvp-25" value="" style="shape=image;verticalLabelPosition=bottom;labelBackgroundColor=default;verticalAlign=top;aspect=fixed;imageAspect=0;image=https://www.docker.com/ja-jp/app/uploads/2023/05/symbol_blue-docker-logo.png;" vertex="1" parent="1">
          <mxGeometry x="450" y="439.99999999999994" width="53.42" height="37.57" as="geometry" />
        </mxCell>
        <mxCell id="hK8XEi0GKn9pTeTBIuvp-26" value="" style="shape=image;verticalLabelPosition=bottom;labelBackgroundColor=default;verticalAlign=top;aspect=fixed;imageAspect=0;image=https://www.docker.com/ja-jp/app/uploads/2023/05/symbol_blue-docker-logo.png;" vertex="1" parent="1">
          <mxGeometry x="230" y="439.99999999999994" width="53.42" height="37.57" as="geometry" />
        </mxCell>
        <mxCell id="hK8XEi0GKn9pTeTBIuvp-27" value="" style="shape=image;verticalLabelPosition=bottom;labelBackgroundColor=default;verticalAlign=top;aspect=fixed;imageAspect=0;image=https://www.docker.com/ja-jp/app/uploads/2023/05/symbol_blue-docker-logo.png;" vertex="1" parent="1">
          <mxGeometry x="350" y="319.99999999999994" width="53.42" height="37.57" as="geometry" />
        </mxCell>
        <mxCell id="hK8XEi0GKn9pTeTBIuvp-28" value="" style="shape=image;verticalLabelPosition=bottom;labelBackgroundColor=default;verticalAlign=top;aspect=fixed;imageAspect=0;image=https://www.docker.com/ja-jp/app/uploads/2023/05/symbol_blue-docker-logo.png;" vertex="1" parent="1">
          <mxGeometry x="119.99999999999999" y="319.99999999999994" width="53.42" height="37.57" as="geometry" />
        </mxCell>
      </root>
    </mxGraphModel>
  </diagram>
</mxfile>
